<?xml version="1.0" encoding="UTF-8"?>
<svg viewBox="0 0 1200 700" xmlns="http://www.w3.org/2000/svg" font-family="Noto Sans KR, -apple-system, system-ui, sans-serif">
  <defs>
    <linearGradient id="headerGrad" x1="0" y1="0" x2="1" y2="0">
      <stop offset="0%" stop-color="#1a56db"/>
      <stop offset="100%" stop-color="#0e9f6e"/>
    </linearGradient>
    <linearGradient id="userGrad" x1="0" y1="0" x2="0" y2="1">
      <stop offset="0%" stop-color="#e8f0fe"/>
      <stop offset="100%" stop-color="#c7d7fc"/>
    </linearGradient>
    <linearGradient id="apiGrad" x1="0" y1="0" x2="0" y2="1">
      <stop offset="0%" stop-color="#fef3c7"/>
      <stop offset="100%" stop-color="#fde68a"/>
    </linearGradient>
    <linearGradient id="serviceGrad" x1="0" y1="0" x2="0" y2="1">
      <stop offset="0%" stop-color="#d1fae5"/>
      <stop offset="100%" stop-color="#a7f3d0"/>
    </linearGradient>
    <linearGradient id="dataGrad" x1="0" y1="0" x2="0" y2="1">
      <stop offset="0%" stop-color="#ede9fe"/>
      <stop offset="100%" stop-color="#ddd6fe"/>
    </linearGradient>
    <linearGradient id="extGrad" x1="0" y1="0" x2="0" y2="1">
      <stop offset="0%" stop-color="#fee2e2"/>
      <stop offset="100%" stop-color="#fecaca"/>
    </linearGradient>
    <marker id="arrowBlue" markerWidth="8" markerHeight="8" refX="6" refY="3" orient="auto">
      <path d="M0,0 L0,6 L8,3 z" fill="#1a56db"/>
    </marker>
    <marker id="arrowGray" markerWidth="8" markerHeight="8" refX="6" refY="3" orient="auto">
      <path d="M0,0 L0,6 L8,3 z" fill="#6b7280"/>
    </marker>
    <filter id="shadow" x="-2%" y="-2%" width="104%" height="108%">
      <feDropShadow dx="0" dy="2" stdDeviation="3" flood-color="#00000018"/>
    </filter>
  </defs>

  <!-- Background -->
  <rect width="1200" height="700" fill="#f8fafc"/>

  <!-- Title bar -->
  <rect x="0" y="0" width="1200" height="52" fill="url(#headerGrad)"/>
  <text x="600" y="33" text-anchor="middle" font-size="20" font-weight="700" fill="white" letter-spacing="1">TripCraft Korea — 시스템 아키텍처</text>

  <!-- ===== LAYER 1: 사용자 레이어 ===== -->
  <rect x="40" y="72" width="1120" height="90" rx="10" fill="url(#userGrad)" stroke="#3b82f6" stroke-width="1.5" filter="url(#shadow)"/>
  <text x="66" y="96" font-size="11" font-weight="700" fill="#1e40af" letter-spacing="0.5">사용자 레이어</text>

  <!-- Mobile device icon -->
  <rect x="180" y="88" width="22" height="36" rx="3" fill="#1a56db" opacity="0.85"/>
  <rect x="183" y="91" width="16" height="25" rx="1" fill="white" opacity="0.9"/>
  <circle cx="191" cy="119" r="2" fill="white" opacity="0.9"/>
  <text x="191" y="141" text-anchor="middle" font-size="10" fill="#1e40af" font-weight="600">모바일 앱</text>

  <!-- Web icon -->
  <rect x="290" y="88" width="36" height="28" rx="3" fill="#1a56db" opacity="0.85"/>
  <line x1="290" y1="97" x2="326" y2="97" stroke="white" stroke-width="1" opacity="0.7"/>
  <circle cx="294" cy="93" r="2" fill="white" opacity="0.6"/>
  <circle cx="300" cy="93" r="2" fill="white" opacity="0.6"/>
  <circle cx="306" cy="93" r="2" fill="white" opacity="0.6"/>
  <text x="308" y="141" text-anchor="middle" font-size="10" fill="#1e40af" font-weight="600">웹 브라우저</text>

  <!-- User action boxes -->
  <rect x="420" y="85" width="160" height="34" rx="6" fill="#3b82f6" opacity="0.2"/>
  <text x="500" y="106" text-anchor="middle" font-size="11" fill="#1e40af" font-weight="600">카테고리 · 지역 선택</text>

  <rect x="600" y="85" width="160" height="34" rx="6" fill="#3b82f6" opacity="0.2"/>
  <text x="680" y="106" text-anchor="middle" font-size="11" fill="#1e40af" font-weight="600">AI 코스 생성 요청</text>

  <rect x="780" y="85" width="160" height="34" rx="6" fill="#3b82f6" opacity="0.2"/>
  <text x="860" y="106" text-anchor="middle" font-size="11" fill="#1e40af" font-weight="600">위치 기반 오디오 재생</text>

  <rect x="960" y="85" width="160" height="34" rx="6" fill="#3b82f6" opacity="0.2"/>
  <text x="1040" y="106" text-anchor="middle" font-size="11" fill="#1e40af" font-weight="600">팔도 스탬프 · 공유</text>

  <!-- Arrow down from user to gateway -->
  <line x1="600" y1="162" x2="600" y2="182" stroke="#1a56db" stroke-width="2" marker-end="url(#arrowBlue)"/>

  <!-- ===== LAYER 2: API Gateway ===== -->
  <rect x="300" y="182" width="600" height="50" rx="8" fill="url(#apiGrad)" stroke="#f59e0b" stroke-width="1.5" filter="url(#shadow)"/>
  <text x="600" y="204" text-anchor="middle" font-size="12" font-weight="700" fill="#92400e">API Gateway</text>
  <text x="600" y="220" text-anchor="middle" font-size="10" fill="#92400e">인증 · 라우팅 · Rate Limit · 캐시 헤더</text>

  <!-- Arrow down from gateway to service -->
  <line x1="600" y1="232" x2="600" y2="252" stroke="#059669" stroke-width="2" marker-end="url(#arrowBlue)"/>

  <!-- ===== LAYER 3: 서비스 레이어 ===== -->
  <rect x="40" y="252" width="1120" height="110" rx="10" fill="url(#serviceGrad)" stroke="#10b981" stroke-width="1.5" filter="url(#shadow)"/>
  <text x="66" y="273" font-size="11" font-weight="700" fill="#065f46" letter-spacing="0.5">서비스 레이어</text>

  <!-- Service boxes -->
  <rect x="60" y="280" width="190" height="64" rx="7" fill="white" stroke="#10b981" stroke-width="1.2"/>
  <rect x="60" y="280" width="190" height="14" rx="7" fill="#10b981"/>
  <rect x="60" y="287" width="190" height="7" rx="0" fill="#10b981"/>
  <text x="155" y="291" text-anchor="middle" font-size="9.5" font-weight="700" fill="white">카테고리 추천 엔진</text>
  <text x="155" y="308" text-anchor="middle" font-size="8.5" fill="#065f46">CLIP 유사도 (코사인 91%+)</text>
  <text x="155" y="321" text-anchor="middle" font-size="8.5" fill="#065f46">Chroma 벡터 검색</text>
  <text x="155" y="334" text-anchor="middle" font-size="8.5" fill="#065f46">소셜 트렌드 파싱</text>

  <rect x="270" y="280" width="190" height="64" rx="7" fill="white" stroke="#10b981" stroke-width="1.2"/>
  <rect x="270" y="280" width="190" height="14" rx="7" fill="#10b981"/>
  <rect x="270" y="287" width="190" height="7" rx="0" fill="#10b981"/>
  <text x="365" y="291" text-anchor="middle" font-size="9.5" font-weight="700" fill="white">동선 최적화 엔진</text>
  <text x="365" y="308" text-anchor="middle" font-size="8.5" fill="#065f46">혼잡도 예측 통합</text>
  <text x="365" y="321" text-anchor="middle" font-size="8.5" fill="#065f46">카카오 모빌리티 경로</text>
  <text x="365" y="334" text-anchor="middle" font-size="8.5" fill="#065f46">이동비 자동 계산</text>

  <rect x="480" y="280" width="190" height="64" rx="7" fill="white" stroke="#10b981" stroke-width="1.2"/>
  <rect x="480" y="280" width="190" height="14" rx="7" fill="#10b981"/>
  <rect x="480" y="287" width="190" height="7" rx="0" fill="#10b981"/>
  <text x="575" y="291" text-anchor="middle" font-size="9.5" font-weight="700" fill="white">오디오 트리거</text>
  <text x="575" y="308" text-anchor="middle" font-size="8.5" fill="#065f46">반경 50m 진입 감지</text>
  <text x="575" y="321" text-anchor="middle" font-size="8.5" fill="#065f46">4개 언어 스토리 분기</text>
  <text x="575" y="334" text-anchor="middle" font-size="8.5" fill="#065f46">계절·성향별 분기</text>

  <rect x="690" y="280" width="190" height="64" rx="7" fill="white" stroke="#10b981" stroke-width="1.2"/>
  <rect x="690" y="280" width="190" height="14" rx="7" fill="#10b981"/>
  <rect x="690" y="287" width="190" height="7" rx="0" fill="#10b981"/>
  <text x="785" y="291" text-anchor="middle" font-size="9.5" font-weight="700" fill="white">경비 합산 엔진</text>
  <text x="785" y="308" text-anchor="middle" font-size="8.5" fill="#065f46">입장료·숙박·이동비</text>
  <text x="785" y="321" text-anchor="middle" font-size="8.5" fill="#065f46">detailCommon2 usefee</text>
  <text x="785" y="334" text-anchor="middle" font-size="8.5" fill="#065f46">카카오 예약 URL 연결</text>

  <rect x="900" y="280" width="220" height="64" rx="7" fill="white" stroke="#10b981" stroke-width="1.2"/>
  <rect x="900" y="280" width="220" height="14" rx="7" fill="#10b981"/>
  <rect x="900" y="287" width="220" height="7" rx="0" fill="#10b981"/>
  <text x="1010" y="291" text-anchor="middle" font-size="9.5" font-weight="700" fill="white">스탬프 검증 엔진</text>
  <text x="1010" y="308" text-anchor="middle" font-size="8.5" fill="#065f46">팔도 17시도 스탬프</text>
  <text x="1010" y="321" text-anchor="middle" font-size="8.5" fill="#065f46">국세청 영수증 OCR 검증</text>
  <text x="1010" y="334" text-anchor="middle" font-size="8.5" fill="#065f46">리워드 포인트 산출</text>

  <!-- Arrow down from service to data -->
  <line x1="600" y1="362" x2="600" y2="382" stroke="#7c3aed" stroke-width="2" marker-end="url(#arrowBlue)"/>

  <!-- ===== LAYER 4: 데이터 레이어 ===== -->
  <rect x="40" y="382" width="1120" height="90" rx="10" fill="url(#dataGrad)" stroke="#8b5cf6" stroke-width="1.5" filter="url(#shadow)"/>
  <text x="66" y="403" font-size="11" font-weight="700" fill="#4c1d95" letter-spacing="0.5">데이터 레이어</text>

  <!-- Chroma DB -->
  <rect x="80" y="412" width="220" height="44" rx="7" fill="white" stroke="#8b5cf6" stroke-width="1.2"/>
  <rect x="80" y="412" width="220" height="44" rx="7" fill="#8b5cf6" opacity="0.12"/>
  <!-- cylinder icon -->
  <ellipse cx="118" cy="426" rx="14" ry="5" fill="#8b5cf6" opacity="0.7"/>
  <rect x="104" y="426" width="28" height="16" fill="#8b5cf6" opacity="0.5"/>
  <ellipse cx="118" cy="442" rx="14" ry="5" fill="#7c3aed" opacity="0.7"/>
  <text x="220" y="428" text-anchor="middle" font-size="10" font-weight="700" fill="#4c1d95">Chroma 벡터 DB</text>
  <text x="220" y="443" text-anchor="middle" font-size="8.5" fill="#4c1d95">26만건 관광지 임베딩</text>

  <!-- Redis -->
  <rect x="330" y="412" width="200" height="44" rx="7" fill="white" stroke="#8b5cf6" stroke-width="1.2"/>
  <rect x="330" y="412" width="200" height="44" rx="7" fill="#8b5cf6" opacity="0.12"/>
  <rect x="352" y="418" width="24" height="24" rx="4" fill="#dc2626" opacity="0.75"/>
  <text x="353" y="432" font-size="9" fill="white" font-weight="700">RE</text>
  <text x="353" y="443" font-size="7" fill="white">DIS</text>
  <text x="450" y="428" text-anchor="middle" font-size="10" font-weight="700" fill="#4c1d95">Redis 캐시</text>
  <text x="450" y="443" text-anchor="middle" font-size="8.5" fill="#4c1d95">TTL 30분~7일 계층 캐시</text>

  <!-- RDB -->
  <rect x="560" y="412" width="200" height="44" rx="7" fill="white" stroke="#8b5cf6" stroke-width="1.2"/>
  <rect x="560" y="412" width="200" height="44" rx="7" fill="#8b5cf6" opacity="0.12"/>
  <ellipse cx="598" cy="426" rx="14" ry="5" fill="#1a56db" opacity="0.7"/>
  <rect x="584" y="426" width="28" height="16" fill="#1a56db" opacity="0.5"/>
  <ellipse cx="598" cy="442" rx="14" ry="5" fill="#1e40af" opacity="0.7"/>
  <text x="678" y="428" text-anchor="middle" font-size="10" font-weight="700" fill="#4c1d95">RDB (관계형 DB)</text>
  <text x="678" y="443" text-anchor="middle" font-size="8.5" fill="#4c1d95">사용자·플랜·스탬프 기록</text>

  <!-- Object Storage -->
  <rect x="790" y="412" width="330" height="44" rx="7" fill="white" stroke="#8b5cf6" stroke-width="1.2"/>
  <rect x="790" y="412" width="330" height="44" rx="7" fill="#8b5cf6" opacity="0.12"/>
  <text x="955" y="428" text-anchor="middle" font-size="10" font-weight="700" fill="#4c1d95">오디오 · 이미지 CDN 스토리지</text>
  <text x="955" y="443" text-anchor="middle" font-size="8.5" fill="#4c1d95">음성 URL / 관광 사진 / 공모전 수상작</text>

  <!-- Arrow down from data to external -->
  <line x1="600" y1="472" x2="600" y2="492" stroke="#dc2626" stroke-width="2" marker-end="url(#arrowBlue)"/>

  <!-- ===== LAYER 5: 외부 API ===== -->
  <rect x="40" y="492" width="1120" height="90" rx="10" fill="url(#extGrad)" stroke="#ef4444" stroke-width="1.5" filter="url(#shadow)"/>
  <text x="66" y="513" font-size="11" font-weight="700" fill="#7f1d1d" letter-spacing="0.5">외부 API 레이어</text>

  <!-- KTO block -->
  <rect x="60" y="522" width="300" height="44" rx="7" fill="white" stroke="#ef4444" stroke-width="1.2"/>
  <rect x="60" y="522" width="300" height="44" rx="7" fill="#ef4444" opacity="0.1"/>
  <!-- KTO logo placeholder -->
  <rect x="74" y="530" width="28" height="28" rx="4" fill="#ef4444" opacity="0.8"/>
  <text x="88" y="548" text-anchor="middle" font-size="8" fill="white" font-weight="700">KTO</text>
  <text x="250" y="535" text-anchor="middle" font-size="10" font-weight="700" fill="#7f1d1d">한국관광공사 OpenAPI</text>
  <text x="250" y="550" text-anchor="middle" font-size="8.5" fill="#7f1d1d">12종 API · 23개 오퍼레이션 (data.go.kr)</text>
  <text x="250" y="562" text-anchor="middle" font-size="8" fill="#991b1b">audio-guide · visitor-forecast · big-data · related · diversity...</text>

  <!-- Kakao block -->
  <rect x="380" y="522" width="250" height="44" rx="7" fill="white" stroke="#ef4444" stroke-width="1.2"/>
  <rect x="380" y="522" width="250" height="44" rx="7" fill="#ef4444" opacity="0.1"/>
  <rect x="394" y="530" width="28" height="28" rx="14" fill="#fee500"/>
  <text x="408" y="548" text-anchor="middle" font-size="8" fill="#3c1e1e" font-weight="700">K</text>
  <text x="505" y="535" text-anchor="middle" font-size="10" font-weight="700" fill="#7f1d1d">카카오 OpenAPI 4종</text>
  <text x="505" y="550" text-anchor="middle" font-size="8.5" fill="#7f1d1d">맵 · 로그인 · 공유 · 모빌리티</text>
  <text x="505" y="562" text-anchor="middle" font-size="8" fill="#991b1b">일 300,000건 무료</text>

  <!-- Naver block -->
  <rect x="650" y="522" width="200" height="44" rx="7" fill="white" stroke="#ef4444" stroke-width="1.2"/>
  <rect x="650" y="522" width="200" height="44" rx="7" fill="#ef4444" opacity="0.1"/>
  <rect x="664" y="530" width="28" height="28" rx="4" fill="#03c75a"/>
  <text x="678" y="548" text-anchor="middle" font-size="8" fill="white" font-weight="700">N</text>
  <text x="770" y="535" text-anchor="middle" font-size="10" font-weight="700" fill="#7f1d1d">네이버 블로그 API</text>
  <text x="770" y="550" text-anchor="middle" font-size="8.5" fill="#7f1d1d">트렌드 키워드 파싱</text>
  <text x="770" y="562" text-anchor="middle" font-size="8" fill="#991b1b">일 25,000건 무료</text>

  <!-- 국세청 block -->
  <rect x="870" y="522" width="250" height="44" rx="7" fill="white" stroke="#ef4444" stroke-width="1.2"/>
  <rect x="870" y="522" width="250" height="44" rx="7" fill="#ef4444" opacity="0.1"/>
  <rect x="884" y="530" width="28" height="28" rx="4" fill="#1a56db"/>
  <text x="898" y="544" text-anchor="middle" font-size="7" fill="white" font-weight="700">국세청</text>
  <text x="898" y="553" text-anchor="middle" font-size="7" fill="white">NTS</text>
  <text x="1000" y="535" text-anchor="middle" font-size="10" font-weight="700" fill="#7f1d1d">국세청 사업자 조회 API</text>
  <text x="1000" y="550" text-anchor="middle" font-size="8.5" fill="#7f1d1d">스탬프 영수증 OCR 검증</text>
  <text x="1000" y="562" text-anchor="middle" font-size="8" fill="#991b1b">무제한 무료</text>

  <!-- Bidirectional flow arrows between service and external -->
  <line x1="210" y1="362" x2="210" y2="520" stroke="#6b7280" stroke-width="1" stroke-dasharray="4,3" opacity="0.5"/>
  <line x1="365" y1="362" x2="365" y2="520" stroke="#6b7280" stroke-width="1" stroke-dasharray="4,3" opacity="0.5"/>
  <line x1="785" y1="362" x2="785" y2="520" stroke="#6b7280" stroke-width="1" stroke-dasharray="4,3" opacity="0.5"/>
  <line x1="1010" y1="362" x2="1010" y2="520" stroke="#6b7280" stroke-width="1" stroke-dasharray="4,3" opacity="0.5"/>

  <!-- Legend -->
  <rect x="40" y="598" width="1120" height="86" rx="8" fill="#f1f5f9" stroke="#e2e8f0" stroke-width="1"/>
  <text x="60" y="616" font-size="10" font-weight="700" fill="#374151">범례</text>
  <rect x="60" y="624" width="14" height="8" rx="2" fill="#3b82f6"/>
  <text x="80" y="632" font-size="9" fill="#374151">사용자 레이어 (모바일/웹)</text>
  <rect x="220" y="624" width="14" height="8" rx="2" fill="#f59e0b"/>
  <text x="240" y="632" font-size="9" fill="#374151">API Gateway</text>
  <rect x="350" y="624" width="14" height="8" rx="2" fill="#10b981"/>
  <text x="370" y="632" font-size="9" fill="#374151">서비스 레이어</text>
  <rect x="490" y="624" width="14" height="8" rx="2" fill="#8b5cf6"/>
  <text x="510" y="632" font-size="9" fill="#374151">데이터 레이어</text>
  <rect x="640" y="624" width="14" height="8" rx="2" fill="#ef4444"/>
  <text x="660" y="632" font-size="9" fill="#374151">외부 API</text>
  <line x1="760" y1="628" x2="800" y2="628" stroke="#1a56db" stroke-width="2" marker-end="url(#arrowBlue)"/>
  <text x="810" y="632" font-size="9" fill="#374151">데이터 흐름 (동기)</text>
  <line x1="960" y1="628" x2="1000" y2="628" stroke="#6b7280" stroke-width="1.5" stroke-dasharray="4,3"/>
  <text x="1010" y="632" font-size="9" fill="#374151">데이터 흐름 (비동기)</text>

  <text x="60" y="654" font-size="9" fill="#6b7280">*총 12종 한국관광공사 API + 카카오 4종 + 네이버 + 국세청 = 외부 API 18종 활용</text>
  <text x="60" y="668" font-size="9" fill="#6b7280">*Chroma 벡터 DB: 26만건 관광지 텍스트+이미지 임베딩 오프라인 사전 배치, 실시간 코사인 유사도 검색</text>
  <text x="60" y="682" font-size="9" fill="#6b7280">*Redis 다층 캐시: TTL 30분(위치) / 6시간(검색) / 24시간(빅데이터) / 7일(이미지/오디오) — API 호출 비용 최소화</text>
</svg>
