<?xml version="1.0" encoding="UTF-8"?>
<svg viewBox="0 0 1400 600" xmlns="http://www.w3.org/2000/svg" font-family="Noto Sans KR, -apple-system, system-ui, sans-serif">
  <defs>
    <filter id="shadow" x="-10%" y="-10%" width="120%" height="120%">
      <feDropShadow dx="0" dy="2" stdDeviation="4" flood-color="#0f172a" flood-opacity="0.12"/>
    </filter>
    <filter id="arrowGlow" x="-30%" y="-80%" width="160%" height="260%">
      <feGaussianBlur stdDeviation="2" result="blur"/>
      <feMerge><feMergeNode in="blur"/><feMergeNode in="SourceGraphic"/></feMerge>
    </filter>
    <marker id="arrowHead" markerWidth="10" markerHeight="7" refX="9" refY="3.5" orient="auto">
      <path d="M0,0.5 Q1,3.5 0,6.5 L9,3.5 Z" fill="#94a3b8"/>
    </marker>
  </defs>

  <!-- Title -->
  <text x="700" y="38" text-anchor="middle" font-size="26" font-weight="700" fill="#1a56db" letter-spacing="-0.5">TripCraft Korea 주요 화면 구성도</text>
  <!-- Subtitle -->
  <text x="700" y="58" text-anchor="middle" font-size="13" fill="#475569">사용자가 단 두 번의 선택만으로 완성된 여행 플랜을 받는 흐름</text>

  <!-- ═══════════════════════════════════════════════════════════════════ -->
  <!-- ARROWS between phones (drawn first, behind phones) -->
  <!-- Arrow 1→2 -->
  <line x1="213" y1="295" x2="248" y2="295" stroke="#94a3b8" stroke-width="2" stroke-linecap="round" marker-end="url(#arrowHead)" filter="url(#arrowGlow)"/>
  <text x="230.5" y="286" text-anchor="middle" font-size="10" fill="#64748b">선택</text>
  <!-- Arrow 2→3 -->
  <line x1="428" y1="295" x2="463" y2="295" stroke="#94a3b8" stroke-width="2" stroke-linecap="round" marker-end="url(#arrowHead)" filter="url(#arrowGlow)"/>
  <text x="445.5" y="286" text-anchor="middle" font-size="10" fill="#64748b">선택</text>
  <!-- Arrow 3→4 -->
  <line x1="643" y1="295" x2="678" y2="295" stroke="#94a3b8" stroke-width="2" stroke-linecap="round" marker-end="url(#arrowHead)" filter="url(#arrowGlow)"/>
  <text x="660.5" y="286" text-anchor="middle" font-size="10" fill="#64748b">5초 자동</text>
  <!-- Arrow 4→5 -->
  <line x1="858" y1="295" x2="893" y2="295" stroke="#94a3b8" stroke-width="2" stroke-linecap="round" marker-end="url(#arrowHead)" filter="url(#arrowGlow)"/>
  <text x="875.5" y="286" text-anchor="middle" font-size="10" fill="#64748b">현장 자동</text>
  <!-- Arrow 5→6 -->
  <line x1="1073" y1="295" x2="1108" y2="295" stroke="#94a3b8" stroke-width="2" stroke-linecap="round" marker-end="url(#arrowHead)" filter="url(#arrowGlow)"/>
  <text x="1090.5" y="286" text-anchor="middle" font-size="10" fill="#64748b">자동 합산</text>

  <!-- ═══════════════════════════════════════════════════════════════════ -->
  <!-- PHONE 1: 카테고리 선택  x=30, frame w=180 h=360, top y=95 -->
  <g id="phone1" filter="url(#shadow)">
    <!-- Phone shell -->
    <rect x="30" y="95" width="183" height="370" rx="24" ry="24" fill="#1e293b"/>
    <!-- Screen area -->
    <rect x="36" y="112" width="171" height="336" rx="10" ry="10" fill="#ffffff"/>
    <!-- Dynamic island -->
    <rect x="98" y="116" width="47" height="12" rx="6" ry="6" fill="#1e293b"/>
    <!-- Status bar -->
    <text x="44" y="128" font-size="7" fill="#94a3b8">9:41</text>
    <text x="192" y="128" text-anchor="end" font-size="7" fill="#94a3b8">●●●</text>

    <!-- App header bar -->
    <rect x="36" y="131" width="171" height="22" fill="#1a56db"/>
    <text x="121" y="145" text-anchor="middle" font-size="9" font-weight="700" fill="#ffffff">카테고리 선택</text>

    <!-- 6 category cards in 2×3 grid -->
    <!-- Row 1 -->
    <!-- Card: 문화유산 (blue) -->
    <rect x="42" y="157" width="50" height="44" rx="7" fill="#dbeafe" stroke="#93c5fd" stroke-width="0.5"/>
    <text x="67" y="174" text-anchor="middle" font-size="14">🏛</text>
    <text x="67" y="185" text-anchor="middle" font-size="7" fill="#1e40af">문화유산</text>
    <text x="67" y="195" text-anchor="middle" font-size="6" fill="#3b82f6">Heritage</text>
    <!-- Card: 미식 (amber) -->
    <rect x="97" y="157" width="50" height="44" rx="7" fill="#fef3c7" stroke="#fcd34d" stroke-width="0.5"/>
    <text x="122" y="174" text-anchor="middle" font-size="14">🍜</text>
    <text x="122" y="185" text-anchor="middle" font-size="7" fill="#92400e">미식</text>
    <text x="122" y="195" text-anchor="middle" font-size="6" fill="#d97706">Food</text>
    <!-- Card: 자연 (green) -->
    <rect x="152" y="157" width="50" height="44" rx="7" fill="#d1fae5" stroke="#6ee7b7" stroke-width="0.5"/>
    <text x="177" y="174" text-anchor="middle" font-size="14">🌿</text>
    <text x="177" y="185" text-anchor="middle" font-size="7" fill="#065f46">자연</text>
    <text x="177" y="195" text-anchor="middle" font-size="6" fill="#10b981">Nature</text>
    <!-- Row 2 -->
    <!-- Card: 축제 (pink) -->
    <rect x="42" y="206" width="50" height="44" rx="7" fill="#fce7f3" stroke="#f9a8d4" stroke-width="0.5"/>
    <text x="67" y="223" text-anchor="middle" font-size="14">🎉</text>
    <text x="67" y="234" text-anchor="middle" font-size="7" fill="#9d174d">축제</text>
    <text x="67" y="244" text-anchor="middle" font-size="6" fill="#ec4899">Festival</text>
    <!-- Card: 힐링 (teal) -->
    <rect x="97" y="206" width="50" height="44" rx="7" fill="#ccfbf1" stroke="#5eead4" stroke-width="0.5"/>
    <text x="122" y="223" text-anchor="middle" font-size="14">🧘</text>
    <text x="122" y="234" text-anchor="middle" font-size="7" fill="#134e4a">힐링</text>
    <text x="122" y="244" text-anchor="middle" font-size="6" fill="#14b8a6">Healing</text>
    <!-- Card: 포토 (violet) -->
    <rect x="152" y="206" width="50" height="44" rx="7" fill="#ede9fe" stroke="#c4b5fd" stroke-width="0.5"/>
    <text x="177" y="223" text-anchor="middle" font-size="14">📸</text>
    <text x="177" y="234" text-anchor="middle" font-size="7" fill="#4c1d95">포토스팟</text>
    <text x="177" y="244" text-anchor="middle" font-size="6" fill="#8b5cf6">Photo</text>

    <!-- Bottom hint -->
    <rect x="42" y="256" width="160" height="18" rx="5" fill="#f0f9ff"/>
    <text x="122" y="268" text-anchor="middle" font-size="8" fill="#0284c7">원하는 테마를 선택하세요</text>

    <!-- CTA button -->
    <rect x="62" y="280" width="120" height="24" rx="8" fill="#1a56db"/>
    <text x="122" y="295" text-anchor="middle" font-size="9" font-weight="700" fill="#ffffff">다음 →</text>

    <!-- Bottom bar -->
    <rect x="80" y="432" width="63" height="4" rx="2" fill="#cbd5e1"/>
  </g>
  <!-- Badge 1 -->
  <circle cx="121" cy="485" r="13" fill="#1a56db"/>
  <text x="121" y="489" text-anchor="middle" font-size="13" fill="#ffffff">①</text>
  <!-- Caption 1 -->
  <text x="121" y="510" text-anchor="middle" font-size="12" font-weight="700" fill="#1e293b">카테고리 선택</text>

  <!-- ═══════════════════════════════════════════════════════════════════ -->
  <!-- PHONE 2: 지역 선택  x=245 -->
  <g id="phone2" filter="url(#shadow)">
    <rect x="245" y="95" width="183" height="370" rx="24" ry="24" fill="#1e293b"/>
    <rect x="251" y="112" width="171" height="336" rx="10" ry="10" fill="#ffffff"/>
    <rect x="313" y="116" width="47" height="12" rx="6" ry="6" fill="#1e293b"/>
    <text x="259" y="128" font-size="7" fill="#94a3b8">9:41</text>
    <text x="407" y="128" text-anchor="end" font-size="7" fill="#94a3b8">●●●</text>

    <rect x="251" y="131" width="171" height="22" fill="#0e9f6e"/>
    <text x="336" y="145" text-anchor="middle" font-size="9" font-weight="700" fill="#ffffff">지역 선택 (서울 제외 16개 시·도)</text>

    <!-- Korea map outline (simplified silhouette path) -->
    <!-- Simplified stylized Korea map centered at ~336,250 -->
    <g transform="translate(251,143)">
      <!-- Map background -->
      <rect x="8" y="5" width="155" height="200" rx="6" fill="#f0fdf4"/>
      <!-- Simplified Korea outline using polygon approximation -->
      <polygon points="55,20 75,15 95,18 110,22 120,30 125,45 130,58 128,75 132,88 128,105 120,118 110,130 100,145 88,158 78,165 68,162 58,155 50,145 42,132 38,118 35,105 33,90 35,75 38,60 42,48 48,35" fill="#bbf7d0" stroke="#22c55e" stroke-width="1.5" stroke-linejoin="round"/>
      <!-- Jeju island -->
      <ellipse cx="72" cy="178" rx="14" ry="8" fill="#bbf7d0" stroke="#22c55e" stroke-width="1"/>

      <!-- Location pins -->
      <circle cx="72" cy="60" r="5" fill="#ef4444"/>
      <line x1="72" y1="55" x2="72" y2="48" stroke="#ef4444" stroke-width="1.5"/>
      <circle cx="72" cy="47" r="3.5" fill="#ef4444"/>

      <circle cx="95" cy="85" r="4.5" fill="#f97316"/>
      <line x1="95" y1="80.5" x2="95" y2="74" stroke="#f97316" stroke-width="1.5"/>
      <circle cx="95" cy="73" r="3" fill="#f97316"/>

      <circle cx="55" cy="100" r="4" fill="#8b5cf6"/>
      <line x1="55" y1="96" x2="55" y2="90" stroke="#8b5cf6" stroke-width="1.5"/>
      <circle cx="55" cy="89" r="3" fill="#8b5cf6"/>

      <circle cx="100" cy="115" r="4" fill="#06b6d4"/>
      <line x1="100" y1="111" x2="100" y2="105" stroke="#06b6d4" stroke-width="1.5"/>
      <circle cx="100" cy="104" r="3" fill="#06b6d4"/>

      <!-- Emphasis label -->
      <rect x="8" y="175" width="155" height="22" rx="4" fill="#dcfce7" stroke="#86efac" stroke-width="0.5"/>
      <text x="85" y="183" text-anchor="middle" font-size="7.5" font-weight="700" fill="#166534">서울 제외</text>
      <text x="85" y="193" text-anchor="middle" font-size="7" fill="#15803d">16개 시·도 전국 커버</text>
    </g>

    <!-- Bottom bar -->
    <rect x="295" y="432" width="63" height="4" rx="2" fill="#cbd5e1"/>
  </g>
  <circle cx="336" cy="485" r="13" fill="#0e9f6e"/>
  <text x="336" y="489" text-anchor="middle" font-size="13" fill="#ffffff">②</text>
  <text x="336" y="510" text-anchor="middle" font-size="12" font-weight="700" fill="#1e293b">지역 선택</text>

  <!-- ═══════════════════════════════════════════════════════════════════ -->
  <!-- PHONE 3: 자동 생성된 여행 코스  x=460 -->
  <g id="phone3" filter="url(#shadow)">
    <rect x="460" y="95" width="183" height="370" rx="24" ry="24" fill="#1e293b"/>
    <rect x="466" y="112" width="171" height="336" rx="10" ry="10" fill="#ffffff"/>
    <rect x="528" y="116" width="47" height="12" rx="6" ry="6" fill="#1e293b"/>
    <text x="474" y="128" font-size="7" fill="#94a3b8">9:41</text>
    <text x="622" y="128" text-anchor="end" font-size="7" fill="#94a3b8">●●●</text>

    <rect x="466" y="131" width="171" height="22" fill="#f59e0b"/>
    <text x="551" y="141" text-anchor="middle" font-size="8.5" font-weight="700" fill="#ffffff">✨ 5초 자동 생성 완료!</text>
    <text x="551" y="150" text-anchor="middle" font-size="7.5" fill="#fff8e1">경주 문화유산 1박2일 코스</text>

    <!-- Day 1 label -->
    <rect x="472" y="157" width="36" height="14" rx="4" fill="#1a56db"/>
    <text x="490" y="167" text-anchor="middle" font-size="7.5" font-weight="700" fill="#ffffff">Day 1</text>

    <!-- Timeline line -->
    <line x1="485" y1="172" x2="485" y2="310" stroke="#e2e8f0" stroke-width="2"/>

    <!-- Stop 1 -->
    <circle cx="485" cy="180" r="5" fill="#1a56db"/>
    <rect x="494" y="172" width="135" height="30" rx="5" fill="#dbeafe" stroke="#93c5fd" stroke-width="0.5"/>
    <text x="501" y="183" font-size="8" font-weight="700" fill="#1e40af">불국사</text>
    <text x="501" y="193" font-size="7" fill="#3b82f6">오전 10:00 · 문화유산</text>
    <text x="621" y="183" text-anchor="end" font-size="7" fill="#64748b">₩5,000</text>

    <!-- Stop 2 -->
    <circle cx="485" cy="215" r="5" fill="#1a56db"/>
    <rect x="494" y="207" width="135" height="30" rx="5" fill="#fef3c7" stroke="#fcd34d" stroke-width="0.5"/>
    <text x="501" y="218" font-size="8" font-weight="700" fill="#92400e">황리단길</text>
    <text x="501" y="228" font-size="7" fill="#d97706">오후 12:30 · 미식</text>
    <text x="621" y="218" text-anchor="end" font-size="7" fill="#64748b">₩12,000</text>

    <!-- Day 2 label -->
    <rect x="472" y="245" width="36" height="14" rx="4" fill="#0e9f6e"/>
    <text x="490" y="255" text-anchor="middle" font-size="7.5" font-weight="700" fill="#ffffff">Day 2</text>

    <!-- Stop 3 -->
    <circle cx="485" cy="270" r="5" fill="#0e9f6e"/>
    <rect x="494" y="262" width="135" height="30" rx="5" fill="#d1fae5" stroke="#6ee7b7" stroke-width="0.5"/>
    <text x="501" y="273" font-size="8" font-weight="700" fill="#065f46">첨성대</text>
    <text x="501" y="283" font-size="7" fill="#10b981">오전 09:00 · 문화유산</text>
    <text x="621" y="273" text-anchor="end" font-size="7" fill="#64748b">무료</text>

    <!-- Stop 4 -->
    <circle cx="485" cy="305" r="5" fill="#0e9f6e"/>
    <rect x="494" y="297" width="135" height="30" rx="5" fill="#ede9fe" stroke="#c4b5fd" stroke-width="0.5"/>
    <text x="501" y="308" font-size="8" font-weight="700" fill="#4c1d95">동궁과 월지</text>
    <text x="501" y="318" font-size="7" fill="#8b5cf6">오후 07:00 · 포토스팟</text>
    <text x="621" y="308" text-anchor="end" font-size="7" fill="#64748b">₩3,000</text>

    <!-- Total cost bar -->
    <rect x="472" y="333" width="159" height="22" rx="5" fill="#0f172a"/>
    <text x="551" y="348" text-anchor="middle" font-size="8.5" font-weight="700" fill="#ffffff">총 예상 경비: ₩152,000 / 1인</text>

    <rect x="510" y="432" width="63" height="4" rx="2" fill="#cbd5e1"/>
  </g>
  <circle cx="551" cy="485" r="13" fill="#f59e0b"/>
  <text x="551" y="489" text-anchor="middle" font-size="13" fill="#ffffff">③</text>
  <text x="551" y="510" text-anchor="middle" font-size="12" font-weight="700" fill="#1e293b">자동 생성된 여행 코스</text>

  <!-- ═══════════════════════════════════════════════════════════════════ -->
  <!-- PHONE 4: 위치 기반 오디오 자동 재생  x=675 -->
  <g id="phone4" filter="url(#shadow)">
    <rect x="675" y="95" width="183" height="370" rx="24" ry="24" fill="#1e293b"/>
    <rect x="681" y="112" width="171" height="336" rx="10" ry="10" fill="#0f172a"/>
    <rect x="743" y="116" width="47" height="12" rx="6" ry="6" fill="#1e293b"/>
    <text x="689" y="128" font-size="7" fill="#94a3b8">9:41</text>
    <text x="837" y="128" text-anchor="end" font-size="7" fill="#94a3b8">●●●</text>

    <!-- Map background (dark) -->
    <rect x="681" y="131" width="171" height="200" fill="#1e3a5f"/>
    <!-- Map grid lines -->
    <line x1="681" y1="161" x2="852" y2="161" stroke="#1e4976" stroke-width="0.5"/>
    <line x1="681" y1="191" x2="852" y2="191" stroke="#1e4976" stroke-width="0.5"/>
    <line x1="681" y1="221" x2="852" y2="221" stroke="#1e4976" stroke-width="0.5"/>
    <line x1="681" y1="251" x2="852" y2="251" stroke="#1e4976" stroke-width="0.5"/>
    <line x1="711" y1="131" x2="711" y2="331" stroke="#1e4976" stroke-width="0.5"/>
    <line x1="741" y1="131" x2="741" y2="331" stroke="#1e4976" stroke-width="0.5"/>
    <line x1="771" y1="131" x2="771" y2="331" stroke="#1e4976" stroke-width="0.5"/>
    <line x1="801" y1="131" x2="801" y2="331" stroke="#1e4976" stroke-width="0.5"/>
    <line x1="831" y1="131" x2="831" y2="331" stroke="#1e4976" stroke-width="0.5"/>
    <!-- Road paths -->
    <path d="M681,215 Q730,210 766,218 Q800,225 852,220" fill="none" stroke="#2d6a9f" stroke-width="3" stroke-linecap="round"/>
    <path d="M766,131 Q763,175 766,218 Q768,255 770,331" fill="none" stroke="#2d6a9f" stroke-width="3" stroke-linecap="round"/>

    <!-- Location pulse (current user position) -->
    <circle cx="766" cy="218" r="18" fill="#3b82f6" fill-opacity="0.2"/>
    <circle cx="766" cy="218" r="11" fill="#3b82f6" fill-opacity="0.3"/>
    <circle cx="766" cy="218" r="6" fill="#3b82f6"/>
    <circle cx="766" cy="218" r="3" fill="#ffffff"/>

    <!-- Attraction star pins -->
    <text x="745" y="183" text-anchor="middle" font-size="16">⭐</text>
    <text x="793" y="198" text-anchor="middle" font-size="14">⭐</text>
    <text x="756" y="263" text-anchor="middle" font-size="14">⭐</text>

    <!-- 50m radius ring -->
    <circle cx="766" cy="218" r="28" fill="none" stroke="#f59e0b" stroke-width="1" stroke-dasharray="4 2"/>
    <text x="796" y="195" font-size="7" fill="#fbbf24">50m</text>

    <!-- Audio trigger notification banner -->
    <rect x="681" y="331" width="171" height="50" fill="#0f172a"/>
    <rect x="687" y="335" width="159" height="42" rx="8" fill="#1e293b" stroke="#334155" stroke-width="0.5"/>
    <text x="700" y="348" font-size="8" fill="#fbbf24">🔔 5m 앞</text>
    <text x="700" y="359" font-size="8" font-weight="700" fill="#f1f5f9">조선시대 우물터</text>
    <text x="700" y="369" font-size="7" fill="#94a3b8">KO · EN · JA · ZH</text>

    <!-- Audio play progress bar -->
    <rect x="681" y="383" width="171" height="56" fill="#0f172a"/>
    <text x="766" y="398" text-anchor="middle" font-size="8" fill="#94a3b8">▶ 오디오 가이드 재생 중…</text>
    <rect x="695" y="404" width="143" height="5" rx="2.5" fill="#1e293b"/>
    <rect x="695" y="404" width="72" height="5" rx="2.5" fill="#1a56db"/>
    <circle cx="767" cy="406.5" r="5" fill="#1a56db"/>
    <text x="695" y="420" font-size="7" fill="#64748b">0:42</text>
    <text x="838" y="420" text-anchor="end" font-size="7" fill="#64748b">1:28</text>
    <text x="766" y="433" text-anchor="middle" font-size="7" fill="#475569">볼륨 ●●●○○  언어: 한국어</text>

    <rect x="725" y="432" width="63" height="4" rx="2" fill="#475569"/>
  </g>
  <circle cx="766" cy="485" r="13" fill="#ec4899"/>
  <text x="766" y="489" text-anchor="middle" font-size="13" fill="#ffffff">④</text>
  <text x="766" y="510" text-anchor="middle" font-size="12" font-weight="700" fill="#1e293b">위치 기반 오디오 자동 재생</text>

  <!-- ═══════════════════════════════════════════════════════════════════ -->
  <!-- PHONE 5: 여행 경비 자동 합산  x=890 -->
  <g id="phone5" filter="url(#shadow)">
    <rect x="890" y="95" width="183" height="370" rx="24" ry="24" fill="#1e293b"/>
    <rect x="896" y="112" width="171" height="336" rx="10" ry="10" fill="#ffffff"/>
    <rect x="958" y="116" width="47" height="12" rx="6" ry="6" fill="#1e293b"/>
    <text x="904" y="128" font-size="7" fill="#94a3b8">9:41</text>
    <text x="1052" y="128" text-anchor="end" font-size="7" fill="#94a3b8">●●●</text>

    <rect x="896" y="131" width="171" height="22" fill="#0f172a"/>
    <text x="981" y="141" text-anchor="middle" font-size="9" font-weight="700" fill="#ffffff">💴 여행 경비 자동 합산</text>
    <text x="981" y="150" text-anchor="middle" font-size="7.5" fill="#94a3b8">경주 1박2일 · 1인 기준</text>

    <!-- Expense table header -->
    <rect x="904" y="157" width="155" height="16" rx="0" fill="#1e293b"/>
    <text x="930" y="168" font-size="7.5" font-weight="700" fill="#e2e8f0">항목</text>
    <text x="1030" y="168" text-anchor="middle" font-size="7.5" font-weight="700" fill="#e2e8f0">1인</text>
    <text x="1051" y="168" text-anchor="end" font-size="7.5" font-weight="700" fill="#e2e8f0">4인 가족</text>

    <!-- Row 1: 입장료 -->
    <rect x="904" y="173" width="155" height="22" fill="#f8fafc"/>
    <text x="909" y="187" font-size="8" fill="#1e293b">🏛 입장료</text>
    <text x="1030" y="187" text-anchor="middle" font-size="8" fill="#1e293b">₩8,000</text>
    <text x="1051" y="187" text-anchor="end" font-size="8" fill="#64748b">₩32,000</text>
    <!-- Row 2: 숙박 -->
    <rect x="904" y="195" width="155" height="22" fill="#ffffff"/>
    <text x="909" y="209" font-size="8" fill="#1e293b">🛏 숙박비</text>
    <text x="1030" y="209" text-anchor="middle" font-size="8" fill="#1e293b">₩55,000</text>
    <text x="1051" y="209" text-anchor="end" font-size="8" fill="#64748b">₩110,000</text>
    <!-- Row 3: 이동 -->
    <rect x="904" y="217" width="155" height="22" fill="#f8fafc"/>
    <text x="909" y="231" font-size="8" fill="#1e293b">🚗 이동비</text>
    <text x="1030" y="231" text-anchor="middle" font-size="8" fill="#1e293b">₩38,000</text>
    <text x="1051" y="231" text-anchor="end" font-size="8" fill="#64748b">₩38,000</text>
    <!-- Row 4: 식비 -->
    <rect x="904" y="239" width="155" height="22" fill="#ffffff"/>
    <text x="909" y="253" font-size="8" fill="#1e293b">🍜 식비</text>
    <text x="1030" y="253" text-anchor="middle" font-size="8" fill="#1e293b">₩51,000</text>
    <text x="1051" y="253" text-anchor="end" font-size="8" fill="#64748b">₩204,000</text>

    <!-- Divider -->
    <line x1="904" y1="262" x2="1059" y2="262" stroke="#e2e8f0" stroke-width="1"/>

    <!-- Total box -->
    <rect x="904" y="263" width="155" height="28" rx="0" fill="#1a56db"/>
    <text x="909" y="281" font-size="9" font-weight="700" fill="#ffffff">합계</text>
    <text x="1030" y="281" text-anchor="middle" font-size="9" font-weight="700" fill="#fbbf24">₩152,000</text>
    <text x="1051" y="281" text-anchor="end" font-size="8.5" font-weight="700" fill="#bfdbfe">₩384,000</text>

    <!-- Kakao mobility badge -->
    <rect x="904" y="297" width="155" height="22" rx="5" fill="#fee500"/>
    <text x="981" y="311" text-anchor="middle" font-size="8" font-weight="700" fill="#3c1e1e">카카오 모빌리티 이동비 자동 계산 ✓</text>

    <!-- Share button -->
    <rect x="930" y="326" width="105" height="22" rx="8" fill="#0f172a"/>
    <text x="982" y="340" text-anchor="middle" font-size="8.5" font-weight="700" fill="#ffffff">카카오톡으로 공유 ↗</text>

    <rect x="940" y="432" width="63" height="4" rx="2" fill="#cbd5e1"/>
  </g>
  <circle cx="981" cy="485" r="13" fill="#0e9f6e"/>
  <text x="981" y="489" text-anchor="middle" font-size="13" fill="#ffffff">⑤</text>
  <text x="981" y="510" text-anchor="middle" font-size="12" font-weight="700" fill="#1e293b">여행 경비 자동 합산</text>

  <!-- ═══════════════════════════════════════════════════════════════════ -->
  <!-- PHONE 6: 팔도 스탬프 적립  x=1105 -->
  <g id="phone6" filter="url(#shadow)">
    <rect x="1105" y="95" width="183" height="370" rx="24" ry="24" fill="#1e293b"/>
    <rect x="1111" y="112" width="171" height="336" rx="10" ry="10" fill="#ffffff"/>
    <rect x="1173" y="116" width="47" height="12" rx="6" ry="6" fill="#1e293b"/>
    <text x="1119" y="128" font-size="7" fill="#94a3b8">9:41</text>
    <text x="1267" y="128" text-anchor="end" font-size="7" fill="#94a3b8">●●●</text>

    <rect x="1111" y="131" width="171" height="22" fill="#7c3aed"/>
    <text x="1196" y="141" text-anchor="middle" font-size="9" font-weight="700" fill="#ffffff">🗺 팔도 스탬프 적립</text>
    <text x="1196" y="150" text-anchor="middle" font-size="7.5" fill="#ede9fe">16개 시·도를 완주하세요!</text>

    <!-- Progress bar -->
    <text x="1119" y="167" font-size="8" fill="#475569">진행률</text>
    <text x="1274" y="167" text-anchor="end" font-size="8" font-weight="700" fill="#7c3aed">9 / 16</text>
    <rect x="1119" y="170" width="143" height="8" rx="4" fill="#e2e8f0"/>
    <rect x="1119" y="170" width="80" height="8" rx="4" fill="#7c3aed"/>
    <circle cx="1199" cy="174" r="5" fill="#7c3aed"/>

    <!-- Stamp grid 4×4 for 16 시도 -->
    <!-- Row 1 -->
    <!-- 경기 ✓ -->
    <rect x="1119" y="184" width="30" height="30" rx="6" fill="#ede9fe" stroke="#a78bfa" stroke-width="1"/>
    <text x="1134" y="198" text-anchor="middle" font-size="7" font-weight="700" fill="#5b21b6">경기</text>
    <text x="1134" y="209" text-anchor="middle" font-size="9" fill="#7c3aed">✓</text>
    <!-- 강원 ✓ -->
    <rect x="1154" y="184" width="30" height="30" rx="6" fill="#ede9fe" stroke="#a78bfa" stroke-width="1"/>
    <text x="1169" y="198" text-anchor="middle" font-size="7" font-weight="700" fill="#5b21b6">강원</text>
    <text x="1169" y="209" text-anchor="middle" font-size="9" fill="#7c3aed">✓</text>
    <!-- 충북 ✓ -->
    <rect x="1189" y="184" width="30" height="30" rx="6" fill="#ede9fe" stroke="#a78bfa" stroke-width="1"/>
    <text x="1204" y="198" text-anchor="middle" font-size="7" font-weight="700" fill="#5b21b6">충북</text>
    <text x="1204" y="209" text-anchor="middle" font-size="9" fill="#7c3aed">✓</text>
    <!-- 충남 -->
    <rect x="1224" y="184" width="30" height="30" rx="6" fill="#f8fafc" stroke="#e2e8f0" stroke-width="1"/>
    <text x="1239" y="198" text-anchor="middle" font-size="7" fill="#94a3b8">충남</text>
    <text x="1239" y="208" text-anchor="middle" font-size="8" fill="#cbd5e1">○</text>

    <!-- Row 2 -->
    <!-- 경북 ✓ -->
    <rect x="1119" y="219" width="30" height="30" rx="6" fill="#ede9fe" stroke="#a78bfa" stroke-width="1"/>
    <text x="1134" y="233" text-anchor="middle" font-size="7" font-weight="700" fill="#5b21b6">경북</text>
    <text x="1134" y="244" text-anchor="middle" font-size="9" fill="#7c3aed">✓</text>
    <!-- 경남 ✓ -->
    <rect x="1154" y="219" width="30" height="30" rx="6" fill="#ede9fe" stroke="#a78bfa" stroke-width="1"/>
    <text x="1169" y="233" text-anchor="middle" font-size="7" font-weight="700" fill="#5b21b6">경남</text>
    <text x="1169" y="244" text-anchor="middle" font-size="9" fill="#7c3aed">✓</text>
    <!-- 전북 ✓ -->
    <rect x="1189" y="219" width="30" height="30" rx="6" fill="#ede9fe" stroke="#a78bfa" stroke-width="1"/>
    <text x="1204" y="233" text-anchor="middle" font-size="7" font-weight="700" fill="#5b21b6">전북</text>
    <text x="1204" y="244" text-anchor="middle" font-size="9" fill="#7c3aed">✓</text>
    <!-- 전남 -->
    <rect x="1224" y="219" width="30" height="30" rx="6" fill="#f8fafc" stroke="#e2e8f0" stroke-width="1"/>
    <text x="1239" y="233" text-anchor="middle" font-size="7" fill="#94a3b8">전남</text>
    <text x="1239" y="243" text-anchor="middle" font-size="8" fill="#cbd5e1">○</text>

    <!-- Row 3 -->
    <!-- 부산 ✓ -->
    <rect x="1119" y="254" width="30" height="30" rx="6" fill="#ede9fe" stroke="#a78bfa" stroke-width="1"/>
    <text x="1134" y="268" text-anchor="middle" font-size="7" font-weight="700" fill="#5b21b6">부산</text>
    <text x="1134" y="279" text-anchor="middle" font-size="9" fill="#7c3aed">✓</text>
    <!-- 대구 ✓ -->
    <rect x="1154" y="254" width="30" height="30" rx="6" fill="#ede9fe" stroke="#a78bfa" stroke-width="1"/>
    <text x="1169" y="268" text-anchor="middle" font-size="7" font-weight="700" fill="#5b21b6">대구</text>
    <text x="1169" y="279" text-anchor="middle" font-size="9" fill="#7c3aed">✓</text>
    <!-- 대전 -->
    <rect x="1189" y="254" width="30" height="30" rx="6" fill="#f8fafc" stroke="#e2e8f0" stroke-width="1"/>
    <text x="1204" y="268" text-anchor="middle" font-size="7" fill="#94a3b8">대전</text>
    <text x="1204" y="278" text-anchor="middle" font-size="8" fill="#cbd5e1">○</text>
    <!-- 광주 -->
    <rect x="1224" y="254" width="30" height="30" rx="6" fill="#f8fafc" stroke="#e2e8f0" stroke-width="1"/>
    <text x="1239" y="268" text-anchor="middle" font-size="7" fill="#94a3b8">광주</text>
    <text x="1239" y="278" text-anchor="middle" font-size="8" fill="#cbd5e1">○</text>

    <!-- Row 4 -->
    <!-- 울산 -->
    <rect x="1119" y="289" width="30" height="30" rx="6" fill="#f8fafc" stroke="#e2e8f0" stroke-width="1"/>
    <text x="1134" y="303" text-anchor="middle" font-size="7" fill="#94a3b8">울산</text>
    <text x="1134" y="313" text-anchor="middle" font-size="8" fill="#cbd5e1">○</text>
    <!-- 세종 -->
    <rect x="1154" y="289" width="30" height="30" rx="6" fill="#f8fafc" stroke="#e2e8f0" stroke-width="1"/>
    <text x="1169" y="303" text-anchor="middle" font-size="7" fill="#94a3b8">세종</text>
    <text x="1169" y="313" text-anchor="middle" font-size="8" fill="#cbd5e1">○</text>
    <!-- 인천 -->
    <rect x="1189" y="289" width="30" height="30" rx="6" fill="#f8fafc" stroke="#e2e8f0" stroke-width="1"/>
    <text x="1204" y="303" text-anchor="middle" font-size="7" fill="#94a3b8">인천</text>
    <text x="1204" y="313" text-anchor="middle" font-size="8" fill="#cbd5e1">○</text>
    <!-- 제주 -->
    <rect x="1224" y="289" width="30" height="30" rx="6" fill="#f8fafc" stroke="#e2e8f0" stroke-width="1"/>
    <text x="1239" y="303" text-anchor="middle" font-size="7" fill="#94a3b8">제주</text>
    <text x="1239" y="313" text-anchor="middle" font-size="8" fill="#cbd5e1">○</text>

    <!-- Reward banner -->
    <rect x="1119" y="325" width="143" height="26" rx="6" fill="#fef3c7" stroke="#fcd34d" stroke-width="1"/>
    <text x="1190" y="337" text-anchor="middle" font-size="8" font-weight="700" fill="#92400e">🎁 9개 달성!</text>
    <text x="1190" y="348" text-anchor="middle" font-size="7" fill="#d97706">다음 목표: 10개 → 지역상품권 ₩10,000</text>

    <rect x="1155" y="432" width="63" height="4" rx="2" fill="#cbd5e1"/>
  </g>
  <circle cx="1196" cy="485" r="13" fill="#7c3aed"/>
  <text x="1196" y="489" text-anchor="middle" font-size="13" fill="#ffffff">⑥</text>
  <text x="1196" y="510" text-anchor="middle" font-size="12" font-weight="700" fill="#1e293b">팔도 스탬프 적립</text>

  <!-- Last arrow label: 스탬프 (after phone 5) -->
  <text x="1090.5" y="303" text-anchor="middle" font-size="10" fill="#64748b">스탬프</text>

</svg>
