<?xml version="1.0" encoding="UTF-8"?>
<svg viewBox="0 0 1000 920" xmlns="http://www.w3.org/2000/svg" font-family="Apple SD Gothic Neo, Noto Sans KR, system-ui, sans-serif">
  <text x="500" y="40" text-anchor="middle" font-size="28" font-weight="800" fill="#1a56db">TripCraft Korea 주요 화면 구성도</text>
  <text x="500" y="68" text-anchor="middle" font-size="15" fill="#475569">사용자가 두 번의 선택만으로 완성된 여행 플랜을 받습니다</text>

  <g transform="translate(40,90)">
    <rect width="290" height="380" rx="22" fill="#1f2937"/>
    <rect x="10" y="10" width="270" height="360" rx="14" fill="#ffffff"/>
    <rect x="120" y="14" width="50" height="6" rx="3" fill="#1f2937"/>
    <text x="20" y="40" font-size="11" fill="#1f2937" font-weight="600">9:41</text>
    <circle cx="22" cy="80" r="13" fill="#2563eb"/>
    <text x="22" y="85" text-anchor="middle" font-size="14" font-weight="800" fill="#ffffff">1</text>
    <text x="44" y="85" font-size="16" font-weight="700" fill="#0f172a">여행 카테고리 선택</text>
    <text x="20" y="110" font-size="12" fill="#64748b">원하는 테마를 선택하세요</text>
    <rect x="20" y="125" width="125" height="70" rx="10" fill="#dbeafe"/>
    <text x="82" y="160" text-anchor="middle" font-size="14" font-weight="700" fill="#1e40af">[기와집]</text>
    <text x="82" y="180" text-anchor="middle" font-size="13" font-weight="700" fill="#1e40af">문화유산</text>
    <rect x="155" y="125" width="125" height="70" rx="10" fill="#fef3c7"/>
    <text x="217" y="160" text-anchor="middle" font-size="14" font-weight="700" fill="#92400e">[그릇]</text>
    <text x="217" y="180" text-anchor="middle" font-size="13" font-weight="700" fill="#92400e">미식</text>
    <rect x="20" y="205" width="125" height="70" rx="10" fill="#d1fae5"/>
    <text x="82" y="240" text-anchor="middle" font-size="14" font-weight="700" fill="#065f46">[산]</text>
    <text x="82" y="260" text-anchor="middle" font-size="13" font-weight="700" fill="#065f46">자연</text>
    <rect x="155" y="205" width="125" height="70" rx="10" fill="#fce7f3"/>
    <text x="217" y="240" text-anchor="middle" font-size="14" font-weight="700" fill="#9d174d">[폭죽]</text>
    <text x="217" y="260" text-anchor="middle" font-size="13" font-weight="700" fill="#9d174d">축제</text>
    <rect x="20" y="285" width="125" height="70" rx="10" fill="#ccfbf1"/>
    <text x="82" y="320" text-anchor="middle" font-size="14" font-weight="700" fill="#115e59">[연꽃]</text>
    <text x="82" y="340" text-anchor="middle" font-size="13" font-weight="700" fill="#115e59">힐링</text>
    <rect x="155" y="285" width="125" height="70" rx="10" fill="#ede9fe"/>
    <text x="217" y="320" text-anchor="middle" font-size="14" font-weight="700" fill="#5b21b6">[카메라]</text>
    <text x="217" y="340" text-anchor="middle" font-size="13" font-weight="700" fill="#5b21b6">포토스팟</text>
  </g>

  <g transform="translate(355,90)">
    <rect width="290" height="380" rx="22" fill="#1f2937"/>
    <rect x="10" y="10" width="270" height="360" rx="14" fill="#ffffff"/>
    <rect x="120" y="14" width="50" height="6" rx="3" fill="#1f2937"/>
    <text x="20" y="40" font-size="11" fill="#1f2937" font-weight="600">9:41</text>
    <circle cx="22" cy="80" r="13" fill="#10b981"/>
    <text x="22" y="85" text-anchor="middle" font-size="14" font-weight="800" fill="#ffffff">2</text>
    <text x="44" y="85" font-size="16" font-weight="700" fill="#0f172a">여행 지역 선택</text>
    <text x="20" y="110" font-size="12" fill="#64748b">서울 제외 16개 시·도 중 선택</text>
    <g transform="translate(70,130)">
      <path d="M 60 0 Q 95 30 110 80 Q 100 130 70 180 Q 60 210 30 215 Q 25 170 40 110 Q 30 50 60 0 Z" fill="#e0e7ff" stroke="#1a56db" stroke-width="2"/>
      <circle cx="55" cy="38" r="6" fill="#94a3b8"/>
      <text x="55" y="32" text-anchor="middle" font-size="9" fill="#475569">서울 제외</text>
      <circle cx="40" cy="55" r="5" fill="#FF6B35"/>
      <text x="48" y="58" font-size="9" fill="#1f2937">강원</text>
      <circle cx="78" cy="80" r="5" fill="#1a56db"/>
      <text x="86" y="83" font-size="9" fill="#1f2937">경북</text>
      <circle cx="35" cy="115" r="5" fill="#10b981"/>
      <text x="43" y="118" font-size="9" fill="#1f2937">충남</text>
      <circle cx="68" cy="160" r="5" fill="#dc2626"/>
      <text x="76" y="163" font-size="9" fill="#1f2937">전남</text>
      <circle cx="80" cy="135" r="5" fill="#7c3aed"/>
      <text x="88" y="138" font-size="9" fill="#1f2937">경남</text>
      <circle cx="60" cy="200" r="5" fill="#0891b2"/>
      <text x="68" y="203" font-size="9" fill="#1f2937">제주</text>
    </g>
    <rect x="20" y="335" width="250" height="28" rx="8" fill="#1a56db"/>
    <text x="145" y="354" text-anchor="middle" font-size="13" font-weight="700" fill="#ffffff">서울 제외 16개 시·도</text>
  </g>

  <g transform="translate(670,90)">
    <rect width="290" height="380" rx="22" fill="#1f2937"/>
    <rect x="10" y="10" width="270" height="360" rx="14" fill="#ffffff"/>
    <rect x="120" y="14" width="50" height="6" rx="3" fill="#1f2937"/>
    <text x="20" y="40" font-size="11" fill="#1f2937" font-weight="600">9:41</text>
    <circle cx="22" cy="80" r="13" fill="#f59e0b"/>
    <text x="22" y="85" text-anchor="middle" font-size="14" font-weight="800" fill="#ffffff">3</text>
    <text x="44" y="85" font-size="16" font-weight="700" fill="#0f172a">자동 생성된 여행 코스</text>
    <text x="20" y="108" font-size="11" font-weight="700" fill="#1a56db">Day 1 · 경주 1박 2일</text>
    <rect x="20" y="118" width="250" height="50" rx="10" fill="#f0f6ff" stroke="#dbeafe"/>
    <text x="32" y="138" font-size="11" font-weight="700" fill="#1a56db">09:00</text>
    <text x="80" y="138" font-size="13" font-weight="700" fill="#0f172a">경복궁</text>
    <text x="80" y="155" font-size="10" fill="#64748b">문화유산 · 입장료 3,000원</text>
    <circle cx="245" cy="138" r="11" fill="#10b981"/>
    <text x="245" y="142" text-anchor="middle" font-size="10" font-weight="700" fill="#ffffff">한산</text>
    <rect x="20" y="175" width="250" height="50" rx="10" fill="#fffbeb" stroke="#fef3c7"/>
    <text x="32" y="195" font-size="11" font-weight="700" fill="#d97706">12:00</text>
    <text x="80" y="195" font-size="13" font-weight="700" fill="#0f172a">교리김밥</text>
    <text x="80" y="212" font-size="10" fill="#64748b">미식 · 1인 8,000원</text>
    <circle cx="245" cy="195" r="11" fill="#f59e0b"/>
    <text x="245" y="199" text-anchor="middle" font-size="10" font-weight="700" fill="#ffffff">보통</text>
    <rect x="20" y="232" width="250" height="50" rx="10" fill="#f0f6ff" stroke="#dbeafe"/>
    <text x="32" y="252" font-size="11" font-weight="700" fill="#1a56db">15:00</text>
    <text x="80" y="252" font-size="13" font-weight="700" fill="#0f172a">불국사</text>
    <text x="80" y="269" font-size="10" fill="#64748b">문화유산 · 오디오 가이드</text>
    <circle cx="245" cy="252" r="11" fill="#10b981"/>
    <text x="245" y="256" text-anchor="middle" font-size="10" font-weight="700" fill="#ffffff">한산</text>
    <text x="20" y="305" font-size="11" font-weight="700" fill="#1a56db">Day 2</text>
    <rect x="20" y="312" width="250" height="46" rx="10" fill="#f0f6ff" stroke="#dbeafe"/>
    <text x="32" y="332" font-size="11" font-weight="700" fill="#1a56db">10:00</text>
    <text x="80" y="332" font-size="13" font-weight="700" fill="#0f172a">석굴암 → 동궁과 월지</text>
    <text x="80" y="348" font-size="10" fill="#64748b">문화유산 · 야경 자동 배치</text>
  </g>

  <g transform="translate(40,500)">
    <rect width="290" height="380" rx="22" fill="#1f2937"/>
    <rect x="10" y="10" width="270" height="360" rx="14" fill="#0f172a"/>
    <rect x="120" y="14" width="50" height="6" rx="3" fill="#374151"/>
    <text x="20" y="40" font-size="11" fill="#94a3b8" font-weight="600">9:41</text>
    <circle cx="22" cy="80" r="13" fill="#7c3aed"/>
    <text x="22" y="85" text-anchor="middle" font-size="14" font-weight="800" fill="#ffffff">4</text>
    <text x="44" y="85" font-size="16" font-weight="700" fill="#ffffff">위치 기반 오디오 자동 재생</text>
    <rect x="20" y="105" width="250" height="160" rx="10" fill="#1e3a5f"/>
    <line x1="60" y1="105" x2="60" y2="265" stroke="#334155" stroke-width="0.5"/>
    <line x1="120" y1="105" x2="120" y2="265" stroke="#334155" stroke-width="0.5"/>
    <line x1="180" y1="105" x2="180" y2="265" stroke="#334155" stroke-width="0.5"/>
    <line x1="20" y1="155" x2="270" y2="155" stroke="#334155" stroke-width="0.5"/>
    <line x1="20" y1="205" x2="270" y2="205" stroke="#334155" stroke-width="0.5"/>
    <polygon points="80,128 86,142 100,142 89,150 93,164 80,156 67,164 71,150 60,142 74,142" fill="#FBB040"/>
    <polygon points="160,158 166,172 180,172 169,180 173,194 160,186 147,194 151,180 140,172 154,172" fill="#FBB040"/>
    <polygon points="210,208 216,222 230,222 219,230 223,244 210,236 197,244 201,230 190,222 204,222" fill="#FBB040"/>
    <circle cx="145" cy="185" r="8" fill="#3b82f6"/>
    <circle cx="145" cy="185" r="14" fill="none" stroke="#3b82f6" stroke-width="1.5" stroke-dasharray="3 2"/>
    <rect x="20" y="278" width="250" height="40" rx="10" fill="#FF6B35"/>
    <text x="34" y="296" font-size="12" font-weight="800" fill="#ffffff">5m 앞 — 조선시대 우물터</text>
    <text x="34" y="312" font-size="10" fill="#ffffff">탭하면 오디오 안내가 자동 재생됩니다</text>
    <rect x="20" y="328" width="250" height="34" rx="10" fill="#ffffff"/>
    <circle cx="36" cy="345" r="9" fill="#7c3aed"/>
    <polygon points="33,341 33,349 41,345" fill="#ffffff"/>
    <text x="52" y="342" font-size="10" font-weight="700" fill="#0f172a">조선시대 우물터 (가을·전통)</text>
    <rect x="52" y="349" width="180" height="4" rx="2" fill="#e2e8f0"/>
    <rect x="52" y="349" width="60" height="4" rx="2" fill="#7c3aed"/>
    <text x="240" y="354" font-size="9" fill="#64748b">1:23/4:05</text>
  </g>

  <g transform="translate(355,500)">
    <rect width="290" height="380" rx="22" fill="#1f2937"/>
    <rect x="10" y="10" width="270" height="360" rx="14" fill="#ffffff"/>
    <rect x="120" y="14" width="50" height="6" rx="3" fill="#1f2937"/>
    <text x="20" y="40" font-size="11" fill="#1f2937" font-weight="600">9:41</text>
    <circle cx="22" cy="80" r="13" fill="#10b981"/>
    <text x="22" y="85" text-anchor="middle" font-size="14" font-weight="800" fill="#ffffff">5</text>
    <text x="44" y="85" font-size="16" font-weight="700" fill="#0f172a">여행 경비 자동 합산</text>
    <text x="20" y="108" font-size="12" fill="#64748b">2인 1박 2일 · 자가용 기준</text>
    <rect x="20" y="120" width="250" height="40" rx="8" fill="#f1f5ff"/>
    <text x="34" y="135" font-size="11" font-weight="700" fill="#1a56db">입장료</text>
    <text x="34" y="151" font-size="10" fill="#64748b">경복궁·불국사·석굴암</text>
    <text x="256" y="142" text-anchor="end" font-size="13" font-weight="700" fill="#0f172a">30,000원</text>
    <rect x="20" y="167" width="250" height="40" rx="8" fill="#f8fafc"/>
    <text x="34" y="182" font-size="11" font-weight="700" fill="#1a56db">숙박비</text>
    <text x="34" y="198" font-size="10" fill="#64748b">경주 한옥 스테이 1박</text>
    <text x="256" y="189" text-anchor="end" font-size="13" font-weight="700" fill="#0f172a">120,000원</text>
    <rect x="20" y="214" width="250" height="40" rx="8" fill="#f1f5ff"/>
    <text x="34" y="229" font-size="11" font-weight="700" fill="#1a56db">이동비</text>
    <text x="34" y="245" font-size="10" fill="#64748b">서울→경주 왕복 (자가용)</text>
    <text x="256" y="236" text-anchor="end" font-size="13" font-weight="700" fill="#0f172a">48,167원</text>
    <rect x="20" y="261" width="250" height="40" rx="8" fill="#f8fafc"/>
    <text x="34" y="276" font-size="11" font-weight="700" fill="#1a56db">식비</text>
    <text x="34" y="292" font-size="10" fill="#64748b">2인 × 3끼 평균</text>
    <text x="256" y="283" text-anchor="end" font-size="13" font-weight="700" fill="#0f172a">90,000원</text>
    <rect x="20" y="312" width="250" height="50" rx="10" fill="#1a56db"/>
    <text x="34" y="334" font-size="13" font-weight="700" fill="#ffffff">합계</text>
    <text x="34" y="352" font-size="10" fill="#dbeafe">1인당 144,084원</text>
    <text x="256" y="345" text-anchor="end" font-size="20" font-weight="900" fill="#ffffff">288,167원</text>
  </g>

  <g transform="translate(670,500)">
    <rect width="290" height="380" rx="22" fill="#1f2937"/>
    <rect x="10" y="10" width="270" height="360" rx="14" fill="#ffffff"/>
    <rect x="120" y="14" width="50" height="6" rx="3" fill="#1f2937"/>
    <text x="20" y="40" font-size="11" fill="#1f2937" font-weight="600">9:41</text>
    <circle cx="22" cy="80" r="13" fill="#7c3aed"/>
    <text x="22" y="85" text-anchor="middle" font-size="14" font-weight="800" fill="#ffffff">6</text>
    <text x="44" y="85" font-size="16" font-weight="700" fill="#0f172a">팔도 스탬프 적립</text>
    <text x="20" y="108" font-size="12" fill="#64748b">서울 제외 16개 시·도 완주</text>

    <rect x="20" y="120" width="60" height="55" rx="8" fill="#f0fdf4" stroke="#10b981" stroke-width="2"/>
    <text x="50" y="146" text-anchor="middle" font-size="14" font-weight="700" fill="#065f46">완료</text>
    <text x="50" y="162" text-anchor="middle" font-size="10" fill="#065f46">부산</text>

    <rect x="84" y="120" width="60" height="55" rx="8" fill="#f0fdf4" stroke="#10b981" stroke-width="2"/>
    <text x="114" y="146" text-anchor="middle" font-size="14" font-weight="700" fill="#065f46">완료</text>
    <text x="114" y="162" text-anchor="middle" font-size="10" fill="#065f46">대구</text>

    <rect x="148" y="120" width="60" height="55" rx="8" fill="#f1f5ff" stroke="#cbd5e1"/>
    <text x="178" y="148" text-anchor="middle" font-size="9" fill="#94a3b8">미방문</text>
    <text x="178" y="162" text-anchor="middle" font-size="10" fill="#475569">인천</text>

    <rect x="212" y="120" width="60" height="55" rx="8" fill="#f0fdf4" stroke="#10b981" stroke-width="2"/>
    <text x="242" y="146" text-anchor="middle" font-size="14" font-weight="700" fill="#065f46">완료</text>
    <text x="242" y="162" text-anchor="middle" font-size="10" fill="#065f46">광주</text>

    <rect x="20" y="180" width="60" height="55" rx="8" fill="#fff7ed" stroke="#FF6B35" stroke-width="2"/>
    <text x="50" y="206" text-anchor="middle" font-size="9" fill="#9a3412">소외 +1.5x</text>
    <text x="50" y="222" text-anchor="middle" font-size="10" fill="#9a3412">강원</text>

    <rect x="84" y="180" width="60" height="55" rx="8" fill="#f0fdf4" stroke="#10b981" stroke-width="2"/>
    <text x="114" y="206" text-anchor="middle" font-size="14" font-weight="700" fill="#065f46">완료</text>
    <text x="114" y="222" text-anchor="middle" font-size="10" fill="#065f46">경기</text>

    <rect x="148" y="180" width="60" height="55" rx="8" fill="#fff7ed" stroke="#FF6B35" stroke-width="2"/>
    <text x="178" y="206" text-anchor="middle" font-size="9" fill="#9a3412">소외 +1.5x</text>
    <text x="178" y="222" text-anchor="middle" font-size="10" fill="#9a3412">충남</text>

    <rect x="212" y="180" width="60" height="55" rx="8" fill="#f0fdf4" stroke="#10b981" stroke-width="2"/>
    <text x="242" y="206" text-anchor="middle" font-size="14" font-weight="700" fill="#065f46">완료</text>
    <text x="242" y="222" text-anchor="middle" font-size="10" fill="#065f46">대전</text>

    <rect x="20" y="240" width="60" height="55" rx="8" fill="#fff7ed" stroke="#FF6B35" stroke-width="2"/>
    <text x="50" y="266" text-anchor="middle" font-size="9" fill="#9a3412">소외 +2x</text>
    <text x="50" y="282" text-anchor="middle" font-size="10" fill="#9a3412">전북</text>

    <rect x="84" y="240" width="60" height="55" rx="8" fill="#fff7ed" stroke="#FF6B35" stroke-width="2"/>
    <text x="114" y="266" text-anchor="middle" font-size="9" fill="#9a3412">소외 +2x</text>
    <text x="114" y="282" text-anchor="middle" font-size="10" fill="#9a3412">전남</text>

    <rect x="148" y="240" width="60" height="55" rx="8" fill="#f0fdf4" stroke="#10b981" stroke-width="2"/>
    <text x="178" y="266" text-anchor="middle" font-size="14" font-weight="700" fill="#065f46">완료</text>
    <text x="178" y="282" text-anchor="middle" font-size="10" fill="#065f46">경북</text>

    <rect x="212" y="240" width="60" height="55" rx="8" fill="#f0fdf4" stroke="#10b981" stroke-width="2"/>
    <text x="242" y="266" text-anchor="middle" font-size="14" font-weight="700" fill="#065f46">완료</text>
    <text x="242" y="282" text-anchor="middle" font-size="10" fill="#065f46">경남</text>

    <rect x="20" y="300" width="60" height="48" rx="8" fill="#f1f5ff" stroke="#cbd5e1"/>
    <text x="50" y="332" text-anchor="middle" font-size="10" fill="#475569">울산</text>

    <rect x="84" y="300" width="60" height="48" rx="8" fill="#f1f5ff" stroke="#cbd5e1"/>
    <text x="114" y="332" text-anchor="middle" font-size="10" fill="#475569">세종</text>

    <rect x="148" y="300" width="60" height="48" rx="8" fill="#fff7ed" stroke="#FF6B35" stroke-width="2"/>
    <text x="178" y="328" text-anchor="middle" font-size="9" fill="#9a3412">충북 +1.5x</text>

    <rect x="212" y="300" width="60" height="48" rx="8" fill="#f0fdf4" stroke="#10b981" stroke-width="2"/>
    <text x="242" y="324" text-anchor="middle" font-size="13" font-weight="700" fill="#065f46">완료</text>
    <text x="242" y="338" text-anchor="middle" font-size="10" fill="#065f46">제주</text>

    <text x="20" y="365" font-size="11" font-weight="700" fill="#0f172a">진행률 9 / 16</text>
    <rect x="135" y="358" width="135" height="8" rx="4" fill="#e2e8f0"/>
    <rect x="135" y="358" width="76" height="8" rx="4" fill="#10b981"/>
  </g>

  <text x="500" y="910" text-anchor="middle" font-size="11" fill="#94a3b8">소외 지역(주황 테두리)은 스탬프 적립과 지역상품권 리워드를 1.5~2배 자동 가산합니다</text>
</svg>
