<?xml version="1.0" encoding="UTF-8"?>
<svg viewBox="0 0 1400 500" xmlns="http://www.w3.org/2000/svg" font-family="Noto Sans KR, -apple-system, system-ui, sans-serif">
  <defs>
    <linearGradient id="bgGrad" x1="0" y1="0" x2="1" y2="0">
      <stop offset="0%" stop-color="#f0f9ff"/>
      <stop offset="100%" stop-color="#f0fdf4"/>
    </linearGradient>
    <linearGradient id="titleGrad" x1="0" y1="0" x2="1" y2="0">
      <stop offset="0%" stop-color="#1a56db"/>
      <stop offset="100%" stop-color="#0e9f6e"/>
    </linearGradient>
    <linearGradient id="step1" x1="0" y1="0" x2="0" y2="1">
      <stop offset="0%" stop-color="#dbeafe"/>
      <stop offset="100%" stop-color="#bfdbfe"/>
    </linearGradient>
    <linearGradient id="step2" x1="0" y1="0" x2="0" y2="1">
      <stop offset="0%" stop-color="#d1fae5"/>
      <stop offset="100%" stop-color="#a7f3d0"/>
    </linearGradient>
    <linearGradient id="step3" x1="0" y1="0" x2="0" y2="1">
      <stop offset="0%" stop-color="#ede9fe"/>
      <stop offset="100%" stop-color="#ddd6fe"/>
    </linearGradient>
    <linearGradient id="step4" x1="0" y1="0" x2="0" y2="1">
      <stop offset="0%" stop-color="#fef3c7"/>
      <stop offset="100%" stop-color="#fde68a"/>
    </linearGradient>
    <linearGradient id="step5" x1="0" y1="0" x2="0" y2="1">
      <stop offset="0%" stop-color="#fee2e2"/>
      <stop offset="100%" stop-color="#fecaca"/>
    </linearGradient>
    <linearGradient id="step6" x1="0" y1="0" x2="0" y2="1">
      <stop offset="0%" stop-color="#fce7f3"/>
      <stop offset="100%" stop-color="#fbcfe8"/>
    </linearGradient>
    <linearGradient id="step7" x1="0" y1="0" x2="0" y2="1">
      <stop offset="0%" stop-color="#ecfdf5"/>
      <stop offset="100%" stop-color="#bbf7d0"/>
    </linearGradient>
    <marker id="arrowRight" markerWidth="10" markerHeight="8" refX="8" refY="4" orient="auto">
      <path d="M0,0 L0,8 L10,4 z" fill="#94a3b8"/>
    </marker>
    <filter id="cardShadow">
      <feDropShadow dx="0" dy="3" stdDeviation="4" flood-color="#00000015"/>
    </filter>
  </defs>

  <!-- Background -->
  <rect width="1400" height="500" fill="url(#bgGrad)"/>

  <!-- Title bar -->
  <rect x="0" y="0" width="1400" height="50" fill="url(#titleGrad)"/>
  <text x="700" y="32" text-anchor="middle" font-size="19" font-weight="700" fill="white" letter-spacing="1">TripCraft Korea — 사용자 여정 플로우</text>

  <!-- Horizontal connector line behind all steps -->
  <line x1="100" y1="230" x2="1300" y2="230" stroke="#cbd5e1" stroke-width="2" stroke-dasharray="6,4"/>

  <!-- ===== Step definitions: x positions ===== -->
  <!-- Steps at x: 30, 230, 430, 630, 830, 1030, 1230 — card width 160, gap 40 -->

  <!-- STEP 1 -->
  <rect x="30" y="85" width="165" height="290" rx="14" fill="url(#step1)" stroke="#3b82f6" stroke-width="1.8" filter="url(#cardShadow)"/>
  <!-- Step number badge -->
  <circle cx="113" cy="100" r="18" fill="#1a56db"/>
  <text x="113" y="105" text-anchor="middle" font-size="13" font-weight="800" fill="white">①</text>
  <!-- Icon: category grid -->
  <rect x="73" y="125" width="20" height="20" rx="3" fill="#3b82f6" opacity="0.7"/>
  <rect x="98" y="125" width="20" height="20" rx="3" fill="#1a56db" opacity="0.5"/>
  <rect x="123" y="125" width="20" height="20" rx="3" fill="#3b82f6" opacity="0.7"/>
  <rect x="73" y="150" width="20" height="20" rx="3" fill="#1a56db" opacity="0.5"/>
  <rect x="98" y="150" width="20" height="20" rx="3" fill="#3b82f6" opacity="0.7"/>
  <rect x="123" y="150" width="20" height="20" rx="3" fill="#1a56db" opacity="0.5"/>
  <text x="113" y="195" text-anchor="middle" font-size="13" font-weight="700" fill="#1e3a8a">카테고리 선택</text>
  <line x1="50" y1="203" x2="176" y2="203" stroke="#3b82f6" stroke-width="0.8" opacity="0.4"/>
  <text x="113" y="218" text-anchor="middle" font-size="9" fill="#1e40af">문화유산·미식·자연</text>
  <text x="113" y="231" text-anchor="middle" font-size="9" fill="#1e40af">K-컬처·힐링·포토스팟</text>
  <text x="113" y="244" text-anchor="middle" font-size="9" fill="#1e40af">7개 테마 카테고리</text>
  <!-- API tag -->
  <rect x="48" y="300" width="130" height="20" rx="5" fill="#1a56db" opacity="0.15"/>
  <text x="113" y="314" text-anchor="middle" font-size="8" fill="#1e3a8a" font-weight="600">tourism-info-korean</text>
  <rect x="48" y="325" width="130" height="20" rx="5" fill="#1a56db" opacity="0.15"/>
  <text x="113" y="339" text-anchor="middle" font-size="8" fill="#1e3a8a" font-weight="600">searchKeyword2</text>
  <rect x="48" y="350" width="130" height="20" rx="5" fill="#1a56db" opacity="0.15"/>
  <text x="113" y="364" text-anchor="middle" font-size="8" fill="#1e3a8a" font-weight="600">contentTypeId 매핑</text>

  <!-- Arrow -->
  <line x1="196" y1="230" x2="224" y2="230" stroke="#94a3b8" stroke-width="2" marker-end="url(#arrowRight)"/>

  <!-- STEP 2 -->
  <rect x="228" y="85" width="165" height="290" rx="14" fill="url(#step2)" stroke="#10b981" stroke-width="1.8" filter="url(#cardShadow)"/>
  <circle cx="311" cy="100" r="18" fill="#059669"/>
  <text x="311" y="105" text-anchor="middle" font-size="13" font-weight="800" fill="white">②</text>
  <!-- Icon: map pin -->
  <ellipse cx="311" cy="148" rx="20" ry="20" fill="#10b981" opacity="0.5"/>
  <ellipse cx="311" cy="144" rx="12" ry="12" fill="#059669" opacity="0.8"/>
  <path d="M311,156 L304,170 L311,165 L318,170 Z" fill="#059669" opacity="0.8"/>
  <text x="311" y="195" text-anchor="middle" font-size="13" font-weight="700" fill="#064e3b">지역 선택</text>
  <line x1="248" y1="203" x2="374" y2="203" stroke="#10b981" stroke-width="0.8" opacity="0.4"/>
  <text x="311" y="218" text-anchor="middle" font-size="9" fill="#065f46">17개 시도 지도 핀</text>
  <text x="311" y="231" text-anchor="middle" font-size="9" fill="#065f46">소외 지역 가중치 표시</text>
  <text x="311" y="244" text-anchor="middle" font-size="9" fill="#065f46">지역 여유로움 지수</text>
  <rect x="248" y="300" width="130" height="20" rx="5" fill="#059669" opacity="0.15"/>
  <text x="311" y="314" text-anchor="middle" font-size="8" fill="#064e3b" font-weight="600">area-tourism-diversity</text>
  <rect x="248" y="325" width="130" height="20" rx="5" fill="#059669" opacity="0.15"/>
  <text x="311" y="339" text-anchor="middle" font-size="8" fill="#064e3b" font-weight="600">카카오맵 SDK</text>
  <rect x="248" y="350" width="130" height="20" rx="5" fill="#059669" opacity="0.15"/>
  <text x="311" y="364" text-anchor="middle" font-size="8" fill="#064e3b" font-weight="600">central-attractions</text>

  <!-- Arrow -->
  <line x1="394" y1="230" x2="422" y2="230" stroke="#94a3b8" stroke-width="2" marker-end="url(#arrowRight)"/>

  <!-- STEP 3 -->
  <rect x="426" y="85" width="165" height="290" rx="14" fill="url(#step3)" stroke="#8b5cf6" stroke-width="1.8" filter="url(#cardShadow)"/>
  <circle cx="509" cy="100" r="18" fill="#7c3aed"/>
  <text x="509" y="105" text-anchor="middle" font-size="13" font-weight="800" fill="white">③</text>
  <!-- Icon: AI sparkle -->
  <polygon points="509,122 514,138 530,138 517,148 522,164 509,154 496,164 501,148 488,138 504,138" fill="#8b5cf6" opacity="0.7"/>
  <circle cx="509" cy="143" r="8" fill="#7c3aed" opacity="0.9"/>
  <text x="509" y="148" text-anchor="middle" font-size="8" fill="white" font-weight="700">AI</text>
  <text x="509" y="195" text-anchor="middle" font-size="13" font-weight="700" fill="#3b0764">AI 코스 생성</text>
  <line x1="446" y1="203" x2="572" y2="203" stroke="#8b5cf6" stroke-width="0.8" opacity="0.4"/>
  <text x="509" y="218" text-anchor="middle" font-size="9" fill="#4c1d95">Chroma 벡터 검색</text>
  <text x="509" y="231" text-anchor="middle" font-size="9" fill="#4c1d95">CLIP 유사도 91%+</text>
  <text x="509" y="244" text-anchor="middle" font-size="9" fill="#4c1d95">원페이지 플랜 생성</text>
  <rect x="446" y="300" width="130" height="20" rx="5" fill="#7c3aed" opacity="0.15"/>
  <text x="509" y="314" text-anchor="middle" font-size="8" fill="#3b0764" font-weight="600">related-attractions</text>
  <rect x="446" y="325" width="130" height="20" rx="5" fill="#7c3aed" opacity="0.15"/>
  <text x="509" y="339" text-anchor="middle" font-size="8" fill="#3b0764" font-weight="600">locationBasedList2</text>
  <rect x="446" y="350" width="130" height="20" rx="5" fill="#7c3aed" opacity="0.15"/>
  <text x="509" y="364" text-anchor="middle" font-size="8" fill="#3b0764" font-weight="600">Chroma 벡터 DB</text>

  <!-- Arrow -->
  <line x1="592" y1="230" x2="620" y2="230" stroke="#94a3b8" stroke-width="2" marker-end="url(#arrowRight)"/>

  <!-- STEP 4 -->
  <rect x="624" y="85" width="165" height="290" rx="14" fill="url(#step4)" stroke="#f59e0b" stroke-width="1.8" filter="url(#cardShadow)"/>
  <circle cx="707" cy="100" r="18" fill="#d97706"/>
  <text x="707" y="105" text-anchor="middle" font-size="13" font-weight="800" fill="white">④</text>
  <!-- Icon: crowd/wave bar chart -->
  <rect x="680" y="158" width="10" height="14" rx="2" fill="#f59e0b" opacity="0.9"/>
  <rect x="696" y="144" width="10" height="28" rx="2" fill="#d97706" opacity="0.9"/>
  <rect x="712" y="130" width="10" height="42" rx="2" fill="#b45309" opacity="0.9"/>
  <rect x="728" y="150" width="10" height="22" rx="2" fill="#d97706" opacity="0.9"/>
  <!-- down arrow over bar -->
  <polygon points="717,122 712,115 722,115" fill="#dc2626" opacity="0.8"/>
  <line x1="717" y1="115" x2="717" y2="128" stroke="#dc2626" stroke-width="1.5" opacity="0.8"/>
  <text x="707" y="195" text-anchor="middle" font-size="11.5" font-weight="700" fill="#451a03">혼잡도·유사장소 보정</text>
  <line x1="644" y1="203" x2="770" y2="203" stroke="#f59e0b" stroke-width="0.8" opacity="0.4"/>
  <text x="707" y="218" text-anchor="middle" font-size="9" fill="#78350f">바이럴 감지 + 대안 제안</text>
  <text x="707" y="231" text-anchor="middle" font-size="9" fill="#78350f">집중률 상위 10% 필터</text>
  <text x="707" y="244" text-anchor="middle" font-size="9" fill="#78350f">여유로움 지수 표시</text>
  <rect x="644" y="300" width="130" height="20" rx="5" fill="#d97706" opacity="0.15"/>
  <text x="707" y="314" text-anchor="middle" font-size="8" fill="#451a03" font-weight="600">visitor-concentration</text>
  <rect x="644" y="325" width="130" height="20" rx="5" fill="#d97706" opacity="0.15"/>
  <text x="707" y="339" text-anchor="middle" font-size="8" fill="#451a03" font-weight="600">tatsCnctrRateList</text>
  <rect x="644" y="350" width="130" height="20" rx="5" fill="#d97706" opacity="0.15"/>
  <text x="707" y="364" text-anchor="middle" font-size="8" fill="#451a03" font-weight="600">네이버 블로그 API</text>

  <!-- Arrow -->
  <line x1="790" y1="230" x2="818" y2="230" stroke="#94a3b8" stroke-width="2" marker-end="url(#arrowRight)"/>

  <!-- STEP 5 -->
  <rect x="822" y="85" width="165" height="290" rx="14" fill="url(#step5)" stroke="#ef4444" stroke-width="1.8" filter="url(#cardShadow)"/>
  <circle cx="905" cy="100" r="18" fill="#dc2626"/>
  <text x="905" y="105" text-anchor="middle" font-size="13" font-weight="800" fill="white">⑤</text>
  <!-- Icon: audio wave + location -->
  <circle cx="905" cy="147" r="14" fill="#ef4444" opacity="0.3"/>
  <circle cx="905" cy="147" r="8" fill="#dc2626" opacity="0.7"/>
  <circle cx="905" cy="147" r="3" fill="white"/>
  <!-- sound waves -->
  <path d="M921,136 Q930,147 921,158" stroke="#dc2626" stroke-width="2" fill="none" opacity="0.7"/>
  <path d="M925,131 Q937,147 925,163" stroke="#ef4444" stroke-width="1.5" fill="none" opacity="0.5"/>
  <text x="905" y="195" text-anchor="middle" font-size="11.5" font-weight="700" fill="#450a0a">위치기반 오디오 재생</text>
  <line x1="842" y1="203" x2="968" y2="203" stroke="#ef4444" stroke-width="0.8" opacity="0.4"/>
  <text x="905" y="218" text-anchor="middle" font-size="9" fill="#7f1d1d">반경 50m 진입 자동 재생</text>
  <text x="905" y="231" text-anchor="middle" font-size="9" fill="#7f1d1d">한·영·중·일 4개 언어</text>
  <text x="905" y="244" text-anchor="middle" font-size="9" fill="#7f1d1d">계절·성향별 스토리 분기</text>
  <rect x="842" y="300" width="130" height="20" rx="5" fill="#dc2626" opacity="0.15"/>
  <text x="905" y="314" text-anchor="middle" font-size="8" fill="#450a0a" font-weight="600">audio-guide API</text>
  <rect x="842" y="325" width="130" height="20" rx="5" fill="#dc2626" opacity="0.15"/>
  <text x="905" y="339" text-anchor="middle" font-size="8" fill="#450a0a" font-weight="600">storyLocationBasedList</text>
  <rect x="842" y="350" width="130" height="20" rx="5" fill="#dc2626" opacity="0.15"/>
  <text x="905" y="364" text-anchor="middle" font-size="8" fill="#450a0a" font-weight="600">photo-contest-winners</text>

  <!-- Arrow -->
  <line x1="988" y1="230" x2="1016" y2="230" stroke="#94a3b8" stroke-width="2" marker-end="url(#arrowRight)"/>

  <!-- STEP 6 -->
  <rect x="1020" y="85" width="165" height="290" rx="14" fill="url(#step6)" stroke="#ec4899" stroke-width="1.8" filter="url(#cardShadow)"/>
  <circle cx="1103" cy="100" r="18" fill="#db2777"/>
  <text x="1103" y="105" text-anchor="middle" font-size="13" font-weight="800" fill="white">⑥</text>
  <!-- Icon: kakao map + wallet -->
  <rect x="1083" y="125" width="40" height="30" rx="4" fill="#fee500" opacity="0.9"/>
  <text x="1103" y="143" text-anchor="middle" font-size="11" fill="#3c1e1e" font-weight="700">카카오</text>
  <rect x="1083" y="158" width="40" height="16" rx="3" fill="#db2777" opacity="0.6"/>
  <text x="1103" y="170" text-anchor="middle" font-size="8" fill="white" font-weight="600">₩ 경비</text>
  <text x="1103" y="195" text-anchor="middle" font-size="11.5" font-weight="700" fill="#500724">카카오맵·예약·경비</text>
  <line x1="1040" y1="203" x2="1166" y2="203" stroke="#ec4899" stroke-width="0.8" opacity="0.4"/>
  <text x="1103" y="218" text-anchor="middle" font-size="9" fill="#831843">카카오맵 경로 즉시 실행</text>
  <text x="1103" y="231" text-anchor="middle" font-size="9" fill="#831843">입장료·숙박·이동 합산</text>
  <text x="1103" y="244" text-anchor="middle" font-size="9" fill="#831843">카카오톡 플랜 공유</text>
  <rect x="1040" y="300" width="130" height="20" rx="5" fill="#db2777" opacity="0.15"/>
  <text x="1103" y="314" text-anchor="middle" font-size="8" fill="#500724" font-weight="600">카카오 모빌리티 API</text>
  <rect x="1040" y="325" width="130" height="20" rx="5" fill="#db2777" opacity="0.15"/>
  <text x="1103" y="339" text-anchor="middle" font-size="8" fill="#500724" font-weight="600">detailCommon2 usefee</text>
  <rect x="1040" y="350" width="130" height="20" rx="5" fill="#db2777" opacity="0.15"/>
  <text x="1103" y="364" text-anchor="middle" font-size="8" fill="#500724" font-weight="600">카카오톡 공유 API</text>

  <!-- Arrow -->
  <line x1="1186" y1="230" x2="1214" y2="230" stroke="#94a3b8" stroke-width="2" marker-end="url(#arrowRight)"/>

  <!-- STEP 7 -->
  <rect x="1218" y="85" width="165" height="290" rx="14" fill="url(#step7)" stroke="#10b981" stroke-width="2.2" filter="url(#cardShadow)"/>
  <circle cx="1301" cy="100" r="18" fill="#059669"/>
  <text x="1301" y="105" text-anchor="middle" font-size="13" font-weight="800" fill="white">⑦</text>
  <!-- Icon: stamp / seal -->
  <circle cx="1301" cy="148" r="22" fill="#10b981" opacity="0.3"/>
  <circle cx="1301" cy="148" r="16" fill="#059669" opacity="0.6"/>
  <text x="1301" y="152" text-anchor="middle" font-size="10" fill="white" font-weight="700">팔도</text>
  <!-- stars around stamp -->
  <text x="1281" y="132" font-size="10" fill="#f59e0b" opacity="0.9">★</text>
  <text x="1318" y="132" font-size="10" fill="#f59e0b" opacity="0.9">★</text>
  <text x="1270" y="152" font-size="10" fill="#f59e0b" opacity="0.9">★</text>
  <text x="1327" y="152" font-size="10" fill="#f59e0b" opacity="0.9">★</text>
  <text x="1301" y="195" text-anchor="middle" font-size="11.5" font-weight="700" fill="#022c22">팔도 스탬프 적립</text>
  <line x1="1238" y1="203" x2="1364" y2="203" stroke="#10b981" stroke-width="0.8" opacity="0.4"/>
  <text x="1301" y="218" text-anchor="middle" font-size="9" fill="#064e3b">17시도 방문 인증</text>
  <text x="1301" y="231" text-anchor="middle" font-size="9" fill="#064e3b">영수증 OCR 검증</text>
  <text x="1301" y="244" text-anchor="middle" font-size="9" fill="#064e3b">리워드 포인트 지급</text>
  <rect x="1238" y="300" width="130" height="20" rx="5" fill="#059669" opacity="0.15"/>
  <text x="1301" y="314" text-anchor="middle" font-size="8" fill="#022c22" font-weight="600">국세청 사업자 조회</text>
  <rect x="1238" y="325" width="130" height="20" rx="5" fill="#059669" opacity="0.15"/>
  <text x="1301" y="339" text-anchor="middle" font-size="8" fill="#022c22" font-weight="600">카카오 로그인 API</text>
  <rect x="1238" y="350" width="130" height="20" rx="5" fill="#059669" opacity="0.15"/>
  <text x="1301" y="364" text-anchor="middle" font-size="8" fill="#022c22" font-weight="600">RDB 스탬프 기록</text>

  <!-- Bottom note -->
  <rect x="30" y="395" width="1340" height="86" rx="8" fill="white" fill-opacity="0.7" stroke="#e2e8f0" stroke-width="1"/>
  <text x="50" y="415" font-size="10" font-weight="700" fill="#374151">전체 플로우 소요 시간</text>
  <text x="50" y="432" font-size="9" fill="#6b7280">① 카테고리 선택: 사용자 입력 (0초)  →  ② 지역 선택: 지도 탭 (1초)  →  ③ AI 코스 생성: Chroma 벡터 검색 + 플랜 조합 (2~4초)  →  ④ 혼잡도 보정: Redis 캐시 조회 (0.3초)</text>
  <text x="50" y="448" font-size="9" fill="#6b7280">→  ⑤ 오디오 재생: 위치 감지 자동 트리거 (실시간)  →  ⑥ 카카오 연동: 예약 URL + 경비 합산 (1초)  →  ⑦ 스탬프 적립: 영수증 OCR + 국세청 검증 (3초)</text>
  <text x="50" y="464" font-size="9" fill="#6b7280">총 초기 플랜 생성: 약 3~5초 내 완료. 오디오·스탬프는 현장 방문 시 실시간 트리거.</text>

  <text x="50" y="480" font-size="8.5" fill="#9ca3af">* API 태그: 각 스텝에서 주요 활용 API 표시. 전체 활용 API 목록은 04-api-utilization.md 참조.</text>
</svg>
